<svg width="158" height="36" viewBox="0 0 158 36" fill="none" xmlns="http://www.w3.org/2000/svg">
<path d="M45.68 17.48C45.68 19.144 45.32 20.624 44.6 21.92C43.896 23.2 42.872 24.2 41.528 24.92C40.2 25.64 38.632 26 36.824 26H30.416V9.032H36.824C38.648 9.032 40.224 9.384 41.552 10.088C42.88 10.792 43.896 11.784 44.6 13.064C45.32 14.344 45.68 15.816 45.68 17.48ZM36.464 22.328C38.064 22.328 39.304 21.904 40.184 21.056C41.08 20.208 41.528 19.016 41.528 17.48C41.528 15.944 41.08 14.752 40.184 13.904C39.304 13.056 38.064 12.632 36.464 12.632H34.52V22.328H36.464ZM53.1056 12.44C54.1296 12.44 55.0096 12.672 55.7456 13.136C56.4816 13.6 57.0256 14.232 57.3776 15.032V12.608H61.4576V26H57.3776V23.576C57.0256 24.376 56.4816 25.008 55.7456 25.472C55.0096 25.936 54.1296 26.168 53.1056 26.168C52.0016 26.168 51.0096 25.896 50.1296 25.352C49.2656 24.792 48.5776 23.992 48.0656 22.952C47.5696 21.912 47.3216 20.696 47.3216 19.304C47.3216 17.896 47.5696 16.68 48.0656 15.656C48.5776 14.616 49.2656 13.824 50.1296 13.28C51.0096 12.72 52.0016 12.44 53.1056 12.44ZM54.4256 16.04C53.5456 16.04 52.8336 16.328 52.2896 16.904C51.7616 17.48 51.4976 18.28 51.4976 19.304C51.4976 20.328 51.7616 21.128 52.2896 21.704C52.8336 22.28 53.5456 22.568 54.4256 22.568C55.2896 22.568 55.9936 22.272 56.5376 21.68C57.0976 21.088 57.3776 20.296 57.3776 19.304C57.3776 18.296 57.0976 17.504 56.5376 16.928C55.9936 16.336 55.2896 16.04 54.4256 16.04ZM71.8672 22.472V26H70.0192C68.4512 26 67.2272 25.616 66.3472 24.848C65.4832 24.064 65.0512 22.776 65.0512 20.984V16.064H63.2512V12.608H65.0512V9.32H69.1552V12.608H71.8432V16.064H69.1552V21.056C69.1552 21.584 69.2592 21.952 69.4672 22.16C69.6912 22.368 70.0592 22.472 70.5712 22.472H71.8672ZM79.2618 12.44C80.2858 12.44 81.1658 12.672 81.9018 13.136C82.6378 13.6 83.1818 14.232 83.5338 15.032V12.608H87.6138V26H83.5338V23.576C83.1818 24.376 82.6378 25.008 81.9018 25.472C81.1658 25.936 80.2858 26.168 79.2618 26.168C78.1578 26.168 77.1658 25.896 76.2858 25.352C75.4218 24.792 74.7338 23.992 74.2218 22.952C73.7258 21.912 73.4778 20.696 73.4778 19.304C73.4778 17.896 73.7258 16.68 74.2218 15.656C74.7338 14.616 75.4218 13.824 76.2858 13.28C77.1658 12.72 78.1578 12.44 79.2618 12.44ZM80.5818 16.04C79.7018 16.04 78.9898 16.328 78.4458 16.904C77.9178 17.48 77.6538 18.28 77.6538 19.304C77.6538 20.328 77.9178 21.128 78.4458 21.704C78.9898 22.28 79.7018 22.568 80.5818 22.568C81.4458 22.568 82.1498 22.272 82.6938 21.68C83.2538 21.088 83.5338 20.296 83.5338 19.304C83.5338 18.296 83.2538 17.504 82.6938 16.928C82.1498 16.336 81.4458 16.04 80.5818 16.04ZM98.1914 8.864C100.351 8.864 102.135 9.432 103.543 10.568C104.967 11.704 105.887 13.24 106.303 15.176H101.959C101.639 14.392 101.143 13.776 100.471 13.328C99.8154 12.88 99.0314 12.656 98.1194 12.656C96.9194 12.656 95.9514 13.096 95.2154 13.976C94.4794 14.856 94.1114 16.032 94.1114 17.504C94.1114 18.976 94.4794 20.152 95.2154 21.032C95.9514 21.896 96.9194 22.328 98.1194 22.328C99.0314 22.328 99.8154 22.104 100.471 21.656C101.143 21.208 101.639 20.6 101.959 19.832H106.303C105.887 21.752 104.967 23.288 103.543 24.44C102.135 25.576 100.351 26.144 98.1914 26.144C96.5434 26.144 95.0954 25.784 93.8474 25.064C92.5994 24.328 91.6314 23.304 90.9434 21.992C90.2714 20.68 89.9354 19.184 89.9354 17.504C89.9354 15.824 90.2714 14.328 90.9434 13.016C91.6314 11.704 92.5994 10.688 93.8474 9.968C95.0954 9.232 96.5434 8.864 98.1914 8.864ZM112.708 8.24V26H108.604V8.24H112.708ZM120.629 12.44C121.653 12.44 122.533 12.672 123.269 13.136C124.005 13.6 124.549 14.232 124.901 15.032V12.608H128.981V26H124.901V23.576C124.549 24.376 124.005 25.008 123.269 25.472C122.533 25.936 121.653 26.168 120.629 26.168C119.525 26.168 118.533 25.896 117.653 25.352C116.789 24.792 116.101 23.992 115.589 22.952C115.093 21.912 114.845 20.696 114.845 19.304C114.845 17.896 115.093 16.68 115.589 15.656C116.101 14.616 116.789 13.824 117.653 13.28C118.533 12.72 119.525 12.44 120.629 12.44ZM121.949 16.04C121.069 16.04 120.357 16.328 119.813 16.904C119.285 17.48 119.021 18.28 119.021 19.304C119.021 20.328 119.285 21.128 119.813 21.704C120.357 22.28 121.069 22.568 121.949 22.568C122.813 22.568 123.517 22.272 124.061 21.68C124.621 21.088 124.901 20.296 124.901 19.304C124.901 18.296 124.621 17.504 124.061 16.928C123.517 16.336 122.813 16.04 121.949 16.04ZM136.679 12.44C138.375 12.44 139.727 12.864 140.735 13.712C141.759 14.56 142.399 15.68 142.655 17.072H138.815C138.703 16.528 138.447 16.104 138.047 15.8C137.663 15.48 137.175 15.32 136.583 15.32C136.119 15.32 135.767 15.424 135.527 15.632C135.287 15.824 135.167 16.104 135.167 16.472C135.167 16.888 135.383 17.2 135.815 17.408C136.263 17.616 136.959 17.824 137.903 18.032C138.927 18.272 139.767 18.52 140.423 18.776C141.079 19.016 141.647 19.416 142.127 19.976C142.607 20.536 142.847 21.288 142.847 22.232C142.847 23 142.639 23.68 142.223 24.272C141.807 24.864 141.207 25.328 140.423 25.664C139.639 26 138.711 26.168 137.639 26.168C135.831 26.168 134.383 25.768 133.295 24.968C132.207 24.168 131.543 23.024 131.303 21.536H135.263C135.327 22.112 135.567 22.552 135.983 22.856C136.415 23.16 136.967 23.312 137.639 23.312C138.103 23.312 138.455 23.208 138.695 23C138.935 22.776 139.055 22.488 139.055 22.136C139.055 21.672 138.831 21.344 138.383 21.152C137.951 20.944 137.239 20.728 136.247 20.504C135.255 20.296 134.439 20.072 133.799 19.832C133.159 19.592 132.607 19.208 132.143 18.68C131.679 18.136 131.447 17.4 131.447 16.472C131.447 15.272 131.903 14.304 132.815 13.568C133.727 12.816 135.015 12.44 136.679 12.44ZM149.991 12.44C151.687 12.44 153.039 12.864 154.047 13.712C155.071 14.56 155.711 15.68 155.967 17.072H152.127C152.015 16.528 151.759 16.104 151.359 15.8C150.975 15.48 150.487 15.32 149.895 15.32C149.431 15.32 149.079 15.424 148.839 15.632C148.599 15.824 148.479 16.104 148.479 16.472C148.479 16.888 148.695 17.2 149.127 17.408C149.575 17.616 150.271 17.824 151.215 18.032C152.239 18.272 153.079 18.52 153.735 18.776C154.391 19.016 154.959 19.416 155.439 19.976C155.919 20.536 156.159 21.288 156.159 22.232C156.159 23 155.951 23.68 155.535 24.272C155.119 24.864 154.519 25.328 153.735 25.664C152.951 26 152.023 26.168 150.951 26.168C149.143 26.168 147.695 25.768 146.607 24.968C145.519 24.168 144.855 23.024 144.615 21.536H148.575C148.639 22.112 148.879 22.552 149.295 22.856C149.727 23.16 150.279 23.312 150.951 23.312C151.415 23.312 151.767 23.208 152.007 23C152.247 22.776 152.367 22.488 152.367 22.136C152.367 21.672 152.143 21.344 151.695 21.152C151.263 20.944 150.551 20.728 149.559 20.504C148.567 20.296 147.751 20.072 147.111 19.832C146.471 19.592 145.919 19.208 145.455 18.68C144.991 18.136 144.759 17.4 144.759 16.472C144.759 15.272 145.215 14.304 146.127 13.568C147.039 12.816 148.327 12.44 149.991 12.44Z" fill="#20104D"/>
<path d="M0 6H10.6154C17.4552 6 23 11.5448 23 18.3846V18.3846H12.3846C5.54478 18.3846 0 12.8398 0 6V6Z" fill="#7443FF"/>
<path d="M0 30.7692H10.6154C17.4552 30.7692 23 25.2244 23 18.3846V18.3846H12.3846C5.54478 18.3846 0 23.9294 0 30.7692V30.7692Z" fill="#C9B6FF"/>
</svg>
