<svg width="24" height="24" viewBox="0 0 24 24" fill="none" xmlns="http://www.w3.org/2000/svg">
<path d="M22 15C22 18.87 18.87 22 15 22L16.05 20.25M2 9C2 5.13 5.13 2 9 2L7.95 3.75M13.7 4.45L17.68 6.75L21.62 4.46M17.68 10.82V6.74" stroke="#7443FF" stroke-width="2" stroke-linecap="round" stroke-linejoin="round"/>
<path d="M2.35001 15.45L6.32001 17.75L10.27 15.46M6.32001 21.82V17.74M16.74 2.21L14.34 3.54C13.8 3.84 13.35 4.6 13.35 5.22V7.76C13.35 8.38 13.79 9.14 14.34 9.44L16.74 10.77C17.25 11.06 18.09 11.06 18.61 10.77L21.01 9.44C21.55 9.14 22 8.38 22 7.76V5.22C22 4.6 21.56 3.84 21.01 3.54L18.61 2.21C18.1 1.93 17.26 1.93 16.74 2.21Z" stroke="#7443FF" stroke-width="2" stroke-linecap="round" stroke-linejoin="round"/>
<path d="M5.39 13.21L2.99 14.54C2.45 14.84 2 15.6 2 16.22V18.76C2 19.38 2.44 20.14 2.99 20.44L5.39 21.77C5.9 22.06 6.74 22.06 7.26 21.77L9.66 20.44C10.2 20.14 10.65 19.38 10.65 18.76V16.22C10.65 15.6 10.21 14.84 9.66 14.54L7.26 13.21C6.74 12.93 5.9 12.93 5.39 13.21Z" stroke="#7443FF" stroke-width="2" stroke-linecap="round" stroke-linejoin="round"/>
</svg>
