<svg width="24" height="25" viewBox="0 0 24 25" fill="none" xmlns="http://www.w3.org/2000/svg">
<path d="M6.5 22.5001H17.5M9.5 14.5001H14.5M16.7 19.4801H7.3C6.88 19.4801 6.41 19.1501 6.27 18.7501L2.13 7.17011C1.54 5.51011 2.23 5.00011 3.65 6.02011L7.55 8.81011C8.2 9.26011 8.94 9.03011 9.22 8.30011L10.98 3.61011C11.54 2.11011 12.47 2.11011 13.03 3.61011L14.79 8.30011C15.07 9.03011 15.81 9.26011 16.45 8.81011L20.11 6.20011C21.67 5.08011 22.42 5.65011 21.78 7.46011L17.74 18.7701C17.59 19.1501 17.12 19.4801 16.7 19.4801Z" stroke="#7443FF" stroke-width="2" stroke-linecap="round" stroke-linejoin="round"/>
</svg>
