<svg width="24" height="24" viewBox="0 0 24 24" fill="none" xmlns="http://www.w3.org/2000/svg">
<path d="M18.04 13.55C17.62 13.96 17.38 14.55 17.44 15.18C17.53 16.26 18.52 17.05 19.6 17.05H21.5V18.24C21.5 20.31 19.81 22 17.74 22H7.63C7.94 21.74 8.21 21.42 8.42 21.06C8.79 20.46 9 19.75 9 19C8.99992 18.2464 8.78693 17.5083 8.38558 16.8705C7.98422 16.2327 7.41084 15.7213 6.73149 15.3952C6.05215 15.0691 5.29449 14.9416 4.54584 15.0274C3.79718 15.1132 3.088 15.4087 2.5 15.88V11.51C2.5 9.44 4.19 7.75 6.26 7.75H17.74C19.81 7.75 21.5 9.44 21.5 11.51V12.95H19.48C18.92 12.95 18.41 13.17 18.04 13.55Z" stroke="#7443FF" stroke-width="2" stroke-linecap="round" stroke-linejoin="round"/>
<path d="M2.5 12.41V7.84003C2.5 6.65003 3.23 5.59003 4.34 5.17003L12.28 2.17003C12.5677 2.06161 12.8774 2.02463 13.1825 2.06225C13.4876 2.09988 13.7791 2.21098 14.0318 2.38603C14.2846 2.56108 14.491 2.79484 14.6335 3.06725C14.7761 3.33966 14.8503 3.64259 14.85 3.95003V7.75003M7 12H14M22.559 13.97V16.03C22.559 16.58 22.119 17.03 21.559 17.05H19.599C18.519 17.05 17.529 16.26 17.439 15.18C17.379 14.55 17.619 13.96 18.039 13.55C18.409 13.17 18.919 12.95 19.479 12.95H21.559C22.119 12.97 22.559 13.42 22.559 13.97Z" stroke="#7443FF" stroke-width="2" stroke-linecap="round" stroke-linejoin="round"/>
<path d="M6.49199 18.9801H3.51199M4.99999 17.5201V20.5101M8.99999 19.0001C8.99999 19.7501 8.78999 20.46 8.41999 21.0601C8.20999 21.4201 7.93999 21.7401 7.62999 22.0001C6.92999 22.6301 6.00999 23.0001 4.99999 23.0001C4.31056 23.0015 3.63263 22.8233 3.03295 22.4832C2.43328 22.143 1.93253 21.6525 1.57999 21.0601C1.19933 20.4405 0.998516 19.7272 0.999993 19.0001C0.999993 17.7401 1.57999 16.6101 2.49999 15.8801C3.08799 15.4088 3.79718 15.1132 4.54583 15.0275C5.29449 14.9417 6.05214 15.0692 6.73148 15.3953C7.41083 15.7214 7.98422 16.2328 8.38557 16.8705C8.78693 17.5083 8.99991 18.2465 8.99999 19.0001Z" stroke="#7443FF" stroke-width="2" stroke-miterlimit="10" stroke-linecap="round" stroke-linejoin="round"/>
</svg>
