<svg width="24" height="24" viewBox="0 0 24 24" fill="none" xmlns="http://www.w3.org/2000/svg">
<g clip-path="url(#clip0_1_36)">
<path d="M8.67 14H4C2.9 14 2 14.9 2 16V22H8.67V14Z" stroke="#7443FF" stroke-width="2" stroke-miterlimit="10" stroke-linecap="round" stroke-linejoin="round"/>
<path d="M15.33 22H8.65997V12C8.65997 10.9 9.55997 10 10.66 10H13.33C13.8604 10 14.3691 10.2107 14.7442 10.5858C15.1193 10.9609 15.33 11.4696 15.33 12V22ZM15.33 22V17H20C21.1 17 22 17.9 22 19V22H15.33Z" stroke="#7443FF" stroke-width="2" stroke-miterlimit="10" stroke-linecap="round" stroke-linejoin="round"/>
<path d="M12.52 2.07001L13.05 3.13001C13.12 3.28001 13.31 3.42001 13.47 3.44001L14.43 3.60001C15.04 3.70001 15.19 4.15001 14.75 4.58001L14 5.33001C13.87 5.46001 13.8 5.70001 13.84 5.87001L14.05 6.79001C14.22 7.52001 13.83 7.80001 13.19 7.42001L12.29 6.89001C12.13 6.79001 11.86 6.79001 11.7 6.89001L10.8 7.42001C10.16 7.80001 9.76999 7.52001 9.93999 6.79001L10.15 5.87001C10.167 5.77376 10.1615 5.67486 10.1337 5.58114C10.1059 5.48741 10.0567 5.40144 9.98999 5.33001L9.24999 4.59001C8.80999 4.15001 8.94999 3.71001 9.56999 3.61001L10.53 3.45001C10.69 3.42001 10.88 3.28001 10.95 3.14001L11.48 2.08001C11.77 1.50001 12.23 1.50001 12.52 2.07001Z" stroke="#7443FF" stroke-width="2" stroke-linecap="round" stroke-linejoin="round"/>
</g>
<defs>
<clipPath id="clip0_1_36">
<rect width="24" height="24" fill="white"/>
</clipPath>
</defs>
</svg>
