<svg width="109" height="30" viewBox="0 0 109 30" fill="none" xmlns="http://www.w3.org/2000/svg">
<g clip-path="url(#clip0_1_145)">
<path d="M107.559 26.0989C107.559 24.4316 106.377 23.2107 104.748 23.2107C103.122 23.2107 101.938 24.4316 101.938 26.0989C101.938 27.7636 103.122 28.9824 104.748 28.9824C106.377 28.9824 107.559 27.7615 107.559 26.0989ZM104.009 26.2471V28.1335H103.4V23.9737H104.914C105.802 23.9737 106.209 24.3613 106.209 25.1168C106.209 25.5822 105.894 25.9508 105.489 26.0042V26.0218C105.841 26.078 105.97 26.3918 106.042 26.9661C106.098 27.3381 106.172 27.9834 106.304 28.1349H105.583C105.415 27.7439 105.432 27.1906 105.303 26.7273C105.196 26.3749 105.008 26.2464 104.604 26.2464H104.013V26.2484L104.009 26.2471ZM104.765 25.7093C105.357 25.7093 105.526 25.3941 105.526 25.1161C105.526 24.7874 105.357 24.5277 104.765 24.5277H104.009V25.7107H104.765V25.7093ZM101.268 26.0989C101.268 24.0447 102.898 22.6561 104.745 22.6561C106.597 22.6561 108.226 24.0447 108.226 26.0989C108.226 28.1491 106.598 29.5391 104.745 29.5391C102.898 29.5391 101.268 28.1491 101.268 26.0989Z" fill="#FF5A00"/>
<path d="M89.2164 28.9391L85.2074 24.4431L81.2336 28.9391H72.872L81.0442 19.7578L72.872 10.5737H81.4947L85.5443 15.0352L89.441 10.5737H97.762L89.6303 19.7192L97.8749 28.9391H89.2164ZM56.8158 28.9391V0.00772095H72.872V6.45646H63.6169V10.5737H72.872V16.7789H63.6169V22.4742H72.872V28.9391H56.8158Z" fill="#FF5A00"/>
<path d="M50.0396 0.00772095V11.848H49.9646C48.465 10.1245 46.5907 9.52391 44.4175 9.52391C39.9641 9.52391 36.6092 12.5535 35.4316 16.5557C34.0882 12.1449 30.6244 9.44139 25.4892 9.44139C21.3179 9.44139 18.0252 11.313 16.3052 14.3635V10.573H7.68451V6.45714H17.0932V0.00907557H0V28.9391H7.68451V16.7789H15.344C15.1081 17.714 14.9901 18.675 14.993 19.6394C14.993 25.6715 19.6026 29.9104 25.4879 29.9104C30.435 29.9104 33.698 27.5857 35.4221 23.3535H28.836C27.9459 24.6271 27.2695 25.0032 25.4886 25.0032C23.4242 25.0032 21.6426 23.2013 21.6426 21.0679H35.0528C35.6345 25.8602 39.3682 29.9923 44.4925 29.9923C46.703 29.9923 48.7268 28.9053 49.9639 27.0689H50.0383V28.9432H56.8137V0.00907557H50.0396V0.00772095ZM21.8563 16.8655C22.2845 15.0271 23.7096 13.8258 25.4886 13.8258C27.4474 13.8258 28.8002 14.9899 29.1553 16.8655H21.8563ZM45.9278 24.5365C43.4313 24.5365 41.8796 22.2104 41.8796 19.7808C41.8796 17.1834 43.2297 14.6882 45.9278 14.6882C48.7274 14.6882 49.8428 17.1848 49.8428 19.7808C49.8428 22.2415 48.6618 24.5365 45.9278 24.5365Z" fill="#29007C"/>
</g>
<defs>
<clipPath id="clip0_1_145">
<rect width="108.225" height="30" fill="white"/>
</clipPath>
</defs>
</svg>
