<svg width="75" height="30" viewBox="0 0 75 30" fill="none" xmlns="http://www.w3.org/2000/svg">
<g clip-path="url(#clip0_1_132)">
<path d="M0 0H75V30H0V0Z" fill="#F0141E"/>
<path d="M63.468 6.99285V2.39865H50.6121L48.4956 17.741L46.4046 2.39865H41.7684L42.2865 6.49545C41.752 5.44545 39.8548 2.39865 35.6773 2.39865C35.6496 2.39685 31.0356 2.39865 31.0356 2.39865L31.0164 24.7613L27.6379 2.39865L21.5653 2.39685L18.0697 25.5669L18.0717 2.39865H12.2589L10.1641 15.4139L8.12355 2.39865H2.30984V27.5885H6.8883V15.4468L8.97119 27.5885H11.4048L13.4583 15.4468V27.5885H22.284L22.8177 23.714H26.3709L26.9046 27.5885L35.5702 27.594H35.5765V27.5885H35.5873V19.4129L36.6484 19.2593L38.8476 27.594H43.33L43.3283 27.5885H43.341L40.4553 17.822C41.9164 16.7451 43.5681 14.0151 43.1286 11.4023V11.4014C43.134 11.4353 45.8532 27.6053 45.8532 27.6053L51.1833 27.5888L54.8251 4.7583V27.5888H63.4677V23.0589H59.3661V17.2829H63.4677V12.6838H59.3661V6.99285H63.468ZM23.3569 19.7205L24.615 8.9502L25.9185 19.7205H23.3569ZM36.6631 14.7473C36.3115 14.9157 35.9455 15 35.5873 15.0009V6.8994C35.5929 6.8994 35.6013 6.8985 35.6103 6.8985C35.9673 6.8958 38.6407 7.0056 38.6407 10.9049C38.6407 12.9446 37.7317 14.231 36.6631 14.7473ZM72.691 23.0547V27.5829H64.2589V2.39505H68.7998V23.0547H72.691Z" fill="white"/>
</g>
<defs>
<clipPath id="clip0_1_132">
<rect width="75" height="30" fill="white"/>
</clipPath>
</defs>
</svg>
