<svg width="91" height="30" viewBox="0 0 91 30" fill="none" xmlns="http://www.w3.org/2000/svg">
<g clip-path="url(#clip0_1_150)">
<path d="M90.3049 7.14232C89.0763 0.0873139 67.8784 -2.11434 42.9563 2.22461C32.4899 4.04777 23.0393 6.73683 15.6796 9.76208C16.8101 9.78683 17.6486 10.0461 18.158 10.5542C18.5563 10.9529 18.7575 11.5002 18.7575 12.182V12.8818H16.3137V12.2639C16.3137 11.7491 16.005 11.43 15.4582 11.43C14.9987 11.43 14.7156 11.6374 14.6242 12.0461C14.5936 12.2076 14.597 12.3738 14.6341 12.5339C14.8956 13.6028 18.5244 14.2666 18.9191 16.2392C18.9708 16.4931 19.041 17.0363 18.9303 17.8135C18.704 19.4044 17.3061 20.0183 15.5266 20.0183C13.0428 20.0183 12.0337 18.8419 12.0337 17.2199L12.0355 16.4525H14.6553L14.6566 17.4085C14.6566 17.9458 15.0473 18.2424 15.5792 18.2424C16.0833 18.2424 16.3776 18.0394 16.4793 17.6245C16.5266 17.4337 16.5473 17.1524 16.4613 16.9373C15.9766 15.7212 12.5882 15.1532 12.171 13.187C12.0778 12.745 12.0702 12.3688 12.1476 11.8931C12.1873 11.6573 12.2604 11.4283 12.3645 11.213C4.20103 15.0308 -0.574466 19.2316 0.0565067 22.8586C1.2865 29.9145 22.4839 32.1139 47.4056 27.7749C58.3607 25.8681 68.2096 23.0134 75.7053 19.8144C75.5968 19.8198 75.4915 19.8315 75.379 19.8315C73.6733 19.8315 72.1503 19.1925 71.9923 17.449C71.9644 17.1317 71.9595 16.9989 71.9586 16.818L71.9595 12.8098C71.9595 12.637 71.9797 12.3337 71.9991 12.1771C72.2011 10.4921 73.5333 9.79718 75.3799 9.79718C76.8088 9.79718 78.5608 10.2072 78.7534 12.1784C78.7791 12.4259 78.7764 12.6901 78.776 12.777V13.1555H76.3079V12.5907C76.3079 12.5785 76.3043 12.3674 76.2773 12.2356C76.2368 12.0344 76.0653 11.5681 75.3623 11.5681C74.6679 11.5681 74.4879 12.0353 74.4429 12.236C74.4172 12.3463 74.4051 12.5047 74.4051 12.6802V17.0363C74.4028 17.1875 74.4105 17.3058 74.4258 17.3927C74.4379 17.4611 74.5626 18.0615 75.3709 18.0615C76.1733 18.0615 76.2975 17.4611 76.3088 17.3927C76.3299 17.2748 76.3326 17.1344 76.3317 17.0363V15.6866H75.3605V14.2329H78.7949V16.8189C78.794 16.9949 78.7913 17.1249 78.7616 17.449C78.7201 17.9062 78.5761 18.2933 78.3502 18.624C86.2995 14.8495 90.9278 10.7166 90.3049 7.14232ZM25.6829 19.6461L24.4327 11.1509H24.3877L23.1055 19.6461H20.4704L22.2427 10.0524H26.5421L28.3036 19.6461H25.6829ZM38.3573 19.6461L38.2992 11.3152H38.2569L36.7065 19.6461H34.2334L32.6907 11.3152H32.6466L32.5903 19.6461H30.1398L30.3522 10.0524H34.2937L35.4414 17.1789H35.4976L36.6484 10.0524H40.5882L40.7997 19.6461H38.3573ZM49.897 17.7869C49.6333 19.6452 47.8128 19.9702 46.5261 19.9702C44.3898 19.9702 43.0684 19.057 43.0684 17.1987L43.0698 16.4408H45.658L45.6598 17.3851C45.6598 17.8977 46.0212 18.2113 46.5793 18.2113C47.077 18.2113 47.3686 18.0115 47.4699 17.6011C47.5167 17.4098 47.5361 17.1308 47.4533 16.9202C46.9762 15.7271 43.6143 15.1424 43.2057 13.2068C43.1121 12.768 43.1053 12.3953 43.1823 11.9246C43.4667 10.1698 45.1508 9.80528 46.5063 9.80528C47.7188 9.80528 48.6013 10.0699 49.1306 10.5992C49.5253 10.9943 49.7251 11.5366 49.7251 12.2113V12.9034H47.3047V12.2927C47.3047 11.7698 46.9803 11.4673 46.4586 11.4673C45.996 11.4673 45.7161 11.673 45.6242 12.0776C45.5945 12.2375 45.5984 12.4018 45.636 12.56C45.8952 13.624 49.492 14.2743 49.8858 16.2284C49.9366 16.4777 50.0064 17.0129 49.897 17.7869ZM58.8612 16.9152C58.8648 17.0952 58.8472 17.4548 58.8373 17.5471C58.6897 19.1277 57.5592 19.931 55.4858 19.931C53.4043 19.931 52.2729 19.1277 52.1261 17.5471C52.1095 17.3375 52.1016 17.1273 52.1023 16.917V10.0501H54.5785V17.1335C54.5758 17.2919 54.5839 17.4089 54.5996 17.4904C54.6302 17.6479 54.7869 18.1591 55.4858 18.1591C56.1825 18.1591 56.3391 17.6474 56.3719 17.4922C56.3859 17.4085 56.3944 17.2856 56.3944 17.133V10.0501H58.8612V16.9152ZM69.5296 19.5485H66.0841L63.7712 11.9493H63.7325L63.8608 19.5485H61.4593V10.0524H65.0494L67.1871 17.3522H67.2371L67.1106 10.0524H69.5296V19.5485Z" fill="#2D4F9E"/>
</g>
<defs>
<clipPath id="clip0_1_150">
<rect width="90.3614" height="30" fill="white"/>
</clipPath>
</defs>
</svg>
