<svg width="101" height="30" viewBox="0 0 101 30" fill="none" xmlns="http://www.w3.org/2000/svg">
<g clip-path="url(#clip0_1_135)">
<path d="M35.5786 11.7694C35.5786 8.7908 37.7503 6.71095 41.6969 6.71095C44.105 6.71095 46.0755 7.47981 47.1431 8.23299C47.2958 8.34053 47.5684 8.60145 47.405 9.08668C47.1955 9.60931 46.8114 10.3953 46.5358 10.9058C46.3754 11.2033 45.9657 11.1641 45.7559 11.0578C44.9955 10.6725 43.7482 10.0206 42.6025 9.90037C42.3123 9.86878 42.0204 9.85616 41.7287 9.86258C40.7196 9.8851 39.8766 10.2355 39.5797 11.0053C39.5215 11.151 39.489 11.3057 39.4838 11.4624C39.456 12.4769 40.8679 12.8438 42.5783 13.1376C45.7581 13.6824 48.1638 14.6147 48.1638 17.8875C48.1638 20.6669 45.9549 23.1787 41.6269 23.1017C38.7738 23.044 36.7496 22.08 35.665 21.1445C35.628 21.1127 35.2151 20.6922 35.4364 20.1865C35.6897 19.5354 36.1173 18.7892 36.4528 18.393C36.6393 18.1386 37.1316 18.0982 37.3874 18.2568C38.2815 18.8123 39.7529 19.7032 41.4491 19.7623C41.5829 19.7669 41.7156 19.7677 41.8458 19.7643C43.3715 19.7273 44.2946 19.1488 44.2753 18.1743C44.2588 17.3158 43.0491 16.8143 41.1228 16.4513C38.0506 15.8726 35.579 14.8599 35.579 11.7694M63.4894 16.0105C61.3229 16.0388 59.3365 16.631 59.2792 18.3241C59.2786 19.6676 60.3685 20.3276 61.8982 20.2411C63.3656 20.0998 64.4846 19.4634 64.9777 18.619C65.16 18.306 65.1877 17.1349 65.1767 16.6344C65.1739 16.5279 64.9632 16.3263 64.8709 16.2875C64.4106 16.0935 64.0699 16.0336 63.4892 16.0101M56.2806 9.18819C57.2937 8.28164 59.3024 6.87055 62.5036 6.94492C66.7283 7.03276 68.9601 9.01331 69.1679 13.7511C69.2536 15.7049 69.1116 21.1547 69.0779 22.5125C69.0728 22.7073 69.0069 22.842 68.7444 22.847C68.0487 22.875 66.4414 22.8639 65.7029 22.8543C65.3302 22.8362 65.287 22.6512 65.2822 22.4577C65.279 22.331 65.2681 21.9555 65.2603 21.6494C65.2561 21.487 65.1035 21.4916 65.0645 21.5332C64.0735 22.5913 62.4506 23.1023 60.7247 23.1023C58.1015 23.1023 55.4864 21.5592 55.4944 18.5032C55.5025 15.3735 57.7216 13.8297 60.1595 13.4657C61.7205 13.2333 63.4801 13.44 64.8126 13.9694C64.8979 14.0036 65.0719 13.9541 65.0734 13.8333C65.0788 13.4345 65.0595 12.6745 64.9829 12.3143C64.7873 11.3965 64.0217 10.658 62.4132 10.459C62.0819 10.4182 61.7484 10.4047 61.4146 10.4312C60.1359 10.5317 58.5972 11.5288 57.96 11.902C57.8101 11.9897 57.5753 11.9255 57.4993 11.8277C57.1274 11.3472 56.1927 9.94218 56.1192 9.71765C56.0456 9.49373 56.1493 9.30518 56.2802 9.18739L56.2806 9.18819ZM70.5609 15.0143C70.5358 10.6493 73.5771 6.96703 78.5155 6.93467C81.597 6.91457 83.8356 8.31159 84.2304 8.9705C84.3106 9.12528 84.2694 9.25453 84.2139 9.41031C83.953 9.96108 83.2941 11.0252 82.8245 11.6283C82.6245 11.8851 82.4074 11.665 82.1552 11.4972C81.4551 11.0309 80.1248 10.4606 78.8156 10.4606C76.4405 10.461 74.6718 12.0896 74.6915 15.0858C74.71 17.9611 76.4041 19.5412 78.8238 19.5985C80.0888 19.6303 81.3144 18.9032 81.9737 18.3076C82.1807 18.1269 82.395 18.2174 82.6316 18.4023C83.0959 18.8769 83.7619 19.6096 84.1311 20.1139C84.3729 20.3941 84.192 20.6683 84.105 20.7784C83.1031 22.0462 81.1682 23.1132 78.6076 23.1276C73.2458 23.1652 70.586 19.3953 70.5613 15.0149M96.1549 22.9308C96.4066 22.9119 99.0923 22.5413 99.9166 22.3525C100.121 22.3059 100.194 22.1338 100.08 21.9634C99.6193 21.2731 98.409 19.3129 97.1415 17.558C95.9756 15.9445 94.7468 14.5254 94.3495 13.9795C94.2526 13.8468 94.2578 13.7161 94.3633 13.6132C95.1193 12.8735 98.2816 9.77293 99.4706 8.4925C99.9309 7.9944 99.6545 7.78012 99.2635 7.66373C98.5083 7.4386 97.2868 7.15799 96.5921 7.01146C96.2992 6.94955 95.9465 6.97125 95.6904 7.23458C94.5016 8.34315 90.8736 11.9844 89.7905 13.0729C89.5956 13.2693 89.482 13.2257 89.481 12.9451C89.4721 10.8465 89.4307 1.86178 89.3558 0.383958C89.3505 0.188576 89.1156 0.0402304 88.9831 0.0331951C88.3021 -0.00238368 86.5816 -0.0126353 85.9036 0.0271646C85.7137 0.0486727 85.5322 0.242245 85.5157 0.405868C85.3593 2.76894 85.582 20.1157 85.6749 22.5423C85.6815 22.7178 85.8122 22.8539 85.9788 22.8637C86.6552 22.9029 88.3282 22.9003 89.1093 22.8856C89.4937 22.8856 89.5407 22.6155 89.5407 22.6155L89.5986 17.9607C89.5986 17.9607 89.6382 17.7536 89.7023 17.6853C89.9777 17.3888 90.7395 16.5723 91.0643 16.2567C91.1423 16.1809 91.2654 16.1864 91.345 16.2935C91.7309 16.8141 92.8314 18.5066 93.8516 20.0182C94.7889 21.4068 95.6639 22.6392 95.725 22.7262C95.8661 22.9272 96.0309 22.9353 96.1551 22.9314V22.9308H96.1549ZM50.4788 22.9148C50.715 22.9226 52.507 22.9206 53.301 22.9196C53.5683 22.9248 53.7072 22.7224 53.7161 22.5437C53.8847 19.1414 53.8126 2.94281 53.706 0.384963C53.6972 0.163852 53.6025 0.0808346 53.4516 0.0607337C52.7701 -0.0305249 50.8336 -0.009218 50.2129 0.153198C50.0915 0.184757 50.0199 0.27702 50.0161 0.395616C49.8641 6.98874 49.9667 22.1891 49.9988 22.477C50.0308 22.7652 50.1815 22.9047 50.4792 22.9148H50.4788Z" fill="#443642"/>
<path d="M2.51926 16.15C1.41491 16.1584 0.47941 15.5003 0.134477 14.4731C0.121681 14.4344 0.109751 14.3953 0.0986973 14.356C-0.277191 13.0405 0.451671 11.6644 1.75803 11.2238L22.7113 4.20395C22.9601 4.13198 23.2176 4.09437 23.4766 4.09219C24.6103 4.08334 25.5715 4.75592 25.9249 5.80479L25.9562 5.9061C26.3482 7.27619 25.3743 8.49913 24.2074 8.8911C24.2066 8.8917 23.9944 8.96346 3.37034 16.005C3.0962 16.0985 2.80887 16.1474 2.51926 16.15Z" fill="#70CADB"/>
<path d="M6.01181 26.4547C4.89881 26.4628 3.9601 25.8139 3.61918 24.8014C3.60624 24.7629 3.59418 24.7241 3.583 24.685C3.20189 23.354 3.92995 21.9634 5.24073 21.5222L26.1948 14.438C26.4656 14.3475 26.7452 14.3013 27.0264 14.2987C28.1424 14.2902 29.1229 14.972 29.4689 15.996L29.501 16.1025C29.7034 16.8103 29.5838 17.6057 29.1814 18.2334C28.8815 18.7002 27.9356 19.111 27.9356 19.111L6.90188 26.303C6.61501 26.4001 6.31464 26.4514 6.01181 26.4551V26.4547Z" fill="#E01765"/>
<path d="M23.4546 26.4996C22.9115 26.5048 22.3807 26.338 21.9382 26.023C21.4956 25.708 21.1642 25.2611 20.9913 24.7462L13.9981 3.97381L13.9632 3.85723C13.5843 2.53257 14.3129 1.15083 15.6189 0.710619C15.8802 0.622778 16.1503 0.576948 16.4223 0.574535C16.8263 0.57152 17.2173 0.662577 17.5856 0.844491C17.8889 0.994503 18.1596 1.203 18.3821 1.45801C18.6045 1.71301 18.7744 2.00947 18.8819 2.33036L25.8744 23.1009L25.8947 23.1677C26.2875 24.543 25.5604 25.9255 24.2545 26.3657C23.9965 26.4519 23.7266 26.4971 23.4546 26.4996Z" fill="#E8A723"/>
<path d="M13.0598 29.9984C12.5164 30.0035 11.9852 29.8366 11.5425 29.5213C11.0998 29.2061 10.7683 28.7588 10.5954 28.2436L3.60411 7.47199C3.49578 7.15153 3.45172 6.81286 3.47445 6.47536C3.49719 6.13785 3.58626 5.80815 3.73658 5.50511C3.88691 5.20208 4.09552 4.93167 4.35048 4.70937C4.60545 4.48707 4.90176 4.31723 5.22244 4.2096C5.48079 4.12323 5.75108 4.07792 6.02347 4.07532C6.56668 4.06996 7.09765 4.23672 7.54025 4.55171C7.98285 4.8667 8.31436 5.31373 8.48725 5.82873L15.4788 26.6011C15.5872 26.9217 15.6312 27.2605 15.6084 27.5982C15.5856 27.9359 15.4964 28.2657 15.3459 28.5688C15.1954 28.8719 14.9865 29.1424 14.7313 29.3647C14.4761 29.5869 14.1796 29.7566 13.8586 29.8641C13.6008 29.9505 13.3309 29.9957 13.059 29.9982L13.0598 29.9984Z" fill="#3EB890"/>
<path d="M20.0071 21.8217L24.8832 20.1545L23.2892 15.4207L18.4075 17.0704L20.0071 21.8217Z" fill="#CC2027"/>
<path d="M9.62838 25.3703L14.5041 23.7033L12.898 18.9333L8.01748 20.5836L9.62838 25.3703Z" fill="#361238"/>
<path d="M16.5357 11.5107L21.4122 9.84571L19.8369 5.16721L14.9513 6.80403L16.5357 11.5107Z" fill="#65863A"/>
<path d="M6.15573 15.0545L11.0322 13.3895L9.43762 8.65131L4.55207 10.2879L6.15573 15.0545Z" fill="#1A937D"/>
</g>
<defs>
<clipPath id="clip0_1_135">
<rect width="100.134" height="30" fill="white"/>
</clipPath>
</defs>
</svg>
