<svg width="101" height="30" viewBox="0 0 101 30" fill="none" xmlns="http://www.w3.org/2000/svg">
<g clip-path="url(#clip0_1_106)">
<path d="M14.9999 3.05176e-05C6.71586 3.05176e-05 0 6.71571 0 14.9998C0 23.2847 6.71586 30 14.9999 30C23.2843 30 29.9998 23.2847 29.9998 14.9998C29.9998 6.71624 23.2847 0.000746442 14.9997 0.000746442L14.9999 3.05176e-05ZM21.8788 21.6339C21.6094 22.0758 21.0337 22.2143 20.5932 21.9451C17.0709 19.7922 12.6373 19.3059 7.41602 20.4987C6.91288 20.614 6.41135 20.2986 6.29673 19.7956C6.18155 19.2925 6.49554 18.791 6.99994 18.6763C12.7138 17.37 17.615 17.9323 21.5687 20.3482C22.0093 20.6187 22.149 21.1937 21.8786 21.6343L21.8788 21.6339ZM23.7147 17.5502C23.3755 18.1007 22.6558 18.2733 22.1061 17.9353C18.075 15.4574 11.9282 14.7397 7.15918 16.1873C6.54068 16.3741 5.88744 16.0256 5.69972 15.4082C5.51344 14.7897 5.86219 14.1377 6.4796 13.9496C11.9271 12.2967 18.6992 13.0973 23.3294 15.9426C23.8793 16.2812 24.0531 17.0012 23.7145 17.5504L23.7147 17.5502ZM23.8723 13.2972C19.0372 10.4258 11.0618 10.1618 6.44609 11.5627C5.70491 11.7874 4.92108 11.369 4.69647 10.6278C4.47186 9.88629 4.88992 9.10299 5.63164 8.87766C10.9301 7.26919 19.7383 7.57995 25.3042 10.8841C25.9709 11.2798 26.1896 12.1408 25.7945 12.8066C25.4004 13.4733 24.537 13.6931 23.8725 13.2972H23.8723ZM40.8098 13.8475C38.2199 13.2299 37.7589 12.7964 37.7589 11.8856C37.7589 11.0251 38.569 10.446 39.7738 10.446C40.9416 10.446 42.0996 10.8858 43.3137 11.791C43.3504 11.8184 43.3964 11.8294 43.4417 11.8222C43.4871 11.8154 43.5272 11.7905 43.5537 11.7531L44.8183 9.97047C44.8702 9.89703 44.8561 9.79583 44.786 9.73976C43.3411 8.58033 41.714 8.01664 39.8121 8.01664C37.0157 8.01664 35.0624 9.6948 35.0624 12.0959C35.0624 14.6707 36.7474 15.5824 39.6591 16.2862C42.1374 16.857 42.5557 17.3353 42.5557 18.1902C42.5557 19.1376 41.7099 19.7265 40.3487 19.7265C38.837 19.7265 37.6039 19.2173 36.2245 18.0227C36.1903 17.9932 36.1434 17.9798 36.1001 17.9823C36.0544 17.986 36.0126 18.0072 35.9836 18.0421L34.5657 19.7296C34.5063 19.7996 34.5138 19.9042 34.5826 19.9647C36.1875 21.3975 38.1614 22.1543 40.2914 22.1543C43.3047 22.1543 45.2519 20.5078 45.2519 17.9595C45.2573 15.8083 43.9695 14.6172 40.8152 13.8498L40.8098 13.8475ZM52.0692 11.2933C50.763 11.2933 49.6917 11.8077 48.8083 12.8618V11.6753C48.8083 11.5816 48.7324 11.5053 48.6389 11.5053H46.3198C46.2261 11.5053 46.1504 11.5816 46.1504 11.6753V24.8588C46.1504 24.9525 46.2261 25.0288 46.3198 25.0288H48.6389C48.7324 25.0288 48.8083 24.9525 48.8083 24.8588V20.6973C49.6919 21.6889 50.7634 22.1734 52.0692 22.1734C54.496 22.1734 56.9528 20.3052 56.9528 16.734C56.9564 13.1618 54.4989 11.2931 52.0718 11.2931L52.0692 11.2933ZM54.2562 16.734C54.2562 18.5526 53.136 19.8216 51.532 19.8216C49.9463 19.8216 48.7501 18.4949 48.7501 16.734C48.7501 14.9733 49.9463 13.6463 51.532 13.6463C53.11 13.6462 54.2564 14.9444 54.2564 16.7338L54.2562 16.734ZM63.2497 11.2933C60.1243 11.2933 57.6757 13.6999 57.6757 16.7728C57.6757 19.8123 60.1075 22.1937 63.2114 22.1937C66.3479 22.1937 68.804 19.7951 68.804 16.734C68.804 13.6834 66.3644 11.2936 63.2496 11.2936L63.2497 11.2933ZM63.2497 19.8397C61.5873 19.8397 60.334 18.504 60.334 16.7331C60.334 14.9546 61.544 13.6641 63.2114 13.6641C64.8846 13.6641 66.1462 14.9997 66.1462 16.7719C66.1462 18.5501 64.9283 19.8397 63.2499 19.8397H63.2497ZM75.4781 11.5053H72.9262V8.8963C72.9262 8.8028 72.8506 8.7265 72.757 8.7265H70.4383C70.3444 8.7265 70.2683 8.8028 70.2683 8.8963V11.5053H69.1533C69.06 11.5053 68.9844 11.5816 68.9844 11.6753V13.6684C68.9844 13.7619 69.06 13.8383 69.1533 13.8383H70.2683V18.9953C70.2683 21.0794 71.3056 22.136 73.3513 22.136C74.1831 22.136 74.8733 21.9642 75.5236 21.5954C75.5765 21.5659 75.6093 21.5089 75.6093 21.4484V19.5504C75.6093 19.4919 75.5788 19.4365 75.5286 19.4059C75.4781 19.3742 75.4153 19.3726 75.3635 19.3982C74.9168 19.623 74.4849 19.7267 74.0022 19.7267C73.2581 19.7267 72.9262 19.3889 72.9262 18.6317V13.8393H75.4781C75.5718 13.8393 75.6472 13.763 75.6472 13.6693V11.6764C75.6508 11.5827 75.5756 11.5064 75.4807 11.5064L75.4781 11.5053ZM84.3696 11.5155V11.1951C84.3696 10.2524 84.731 9.83201 85.5417 9.83201C86.0252 9.83201 86.4135 9.92801 86.8484 10.0731C86.902 10.0899 86.9578 10.0815 87.0014 10.0495C87.0462 10.0174 87.0714 9.96599 87.0714 9.91153V7.95735C87.0714 7.88265 87.0234 7.81656 86.9514 7.79453C86.492 7.65786 85.9041 7.51761 85.0239 7.51761C82.882 7.51761 81.7498 8.72379 81.7498 11.0045V11.4953H80.6357C80.5422 11.4953 80.4655 11.5716 80.4655 11.6651V13.6684C80.4655 13.7619 80.5422 13.8383 80.6357 13.8383H81.7498V21.7928C81.7498 21.8865 81.8254 21.9628 81.9189 21.9628H84.2379C84.3316 21.9628 84.4079 21.8865 84.4079 21.7928V13.8389H86.5731L89.8898 21.7914C89.5133 22.627 89.1431 22.7932 88.6376 22.7932C88.229 22.7932 87.7988 22.6712 87.3589 22.4305C87.3175 22.4077 87.2684 22.404 87.2238 22.4178C87.1796 22.4333 87.1423 22.4663 87.1235 22.5093L86.3376 24.2337C86.3001 24.3152 86.3322 24.4108 86.4106 24.4531C87.2312 24.8975 87.9719 25.0872 88.8873 25.0872C90.5997 25.0872 91.5462 24.2895 92.3805 22.1437L96.4037 11.7477C96.4239 11.6954 96.4178 11.6363 96.3857 11.5899C96.3539 11.5438 96.3025 11.5161 96.2462 11.5161H93.832C93.7597 11.5161 93.695 11.5621 93.6714 11.63L91.1983 18.6941L88.4895 11.6253C88.4648 11.5596 88.4014 11.5161 88.3312 11.5161H84.3691L84.3696 11.5155ZM79.2145 11.5053H76.8955C76.8018 11.5053 76.7255 11.5816 76.7255 11.6753V21.7928C76.7255 21.8865 76.8018 21.9628 76.8955 21.9628H79.2145C79.308 21.9628 79.3845 21.8865 79.3845 21.7928V11.676C79.3846 11.6537 79.3802 11.6315 79.3717 11.6109C79.3631 11.5902 79.3506 11.5715 79.3348 11.5557C79.319 11.5399 79.3002 11.5273 79.2795 11.5188C79.2589 11.5103 79.2367 11.506 79.2144 11.5061L79.2145 11.5053ZM78.0682 6.8986C77.1495 6.8986 76.404 7.64229 76.404 8.56099C76.404 9.48023 77.1497 10.2248 78.0682 10.2248C78.9865 10.2248 79.7313 9.48023 79.7313 8.56099C79.7313 7.64247 78.9862 6.8986 78.0691 6.8986H78.0682ZM98.3838 14.7583C97.466 14.7583 96.7519 14.0212 96.7519 13.1262C96.7519 12.2311 97.4753 11.4856 98.3924 11.4856C99.3102 11.4856 100.024 12.2225 100.024 13.1169C100.024 14.0119 99.3007 14.7583 98.3836 14.7583H98.3838ZM98.3928 11.6479C97.5568 11.6479 96.9243 12.3124 96.9243 13.1262C96.9243 13.9396 97.5523 14.5951 98.3843 14.5951C99.2201 14.5951 99.8533 13.9311 99.8533 13.1169C99.8533 12.3035 99.2246 11.6479 98.3935 11.6479H98.3928ZM98.7546 13.2847L99.2162 13.931H98.827L98.4114 13.3381H98.0541V13.931H97.7283V12.2179H98.4922C98.8902 12.2179 99.1519 12.4215 99.1519 12.7644C99.1537 13.0452 98.9907 13.2168 98.756 13.2847L98.7546 13.2847ZM98.4788 12.5118H98.0539V13.0536H98.4788C98.6908 13.0536 98.8174 12.9499 98.8174 12.7825C98.8174 12.6062 98.6903 12.5118 98.4789 12.5118L98.4788 12.5118Z" fill="#2EBD59"/>
</g>
<defs>
<clipPath id="clip0_1_106">
<rect width="100.024" height="30" fill="white"/>
</clipPath>
</defs>
</svg>
