<svg width="128" height="30" viewBox="0 0 128 30" fill="none" xmlns="http://www.w3.org/2000/svg">
<path fill-rule="evenodd" clip-rule="evenodd" d="M101.996 9.52878C102.461 10.3311 102.613 11.2438 102.664 12.27L102.73 13.6377V23.2019L102.797 24.5711C102.932 26.8071 104.581 28.4605 106.834 28.6011L108.196 28.6686V13.6377L108.264 12.27C108.32 11.2553 108.47 10.3253 108.943 9.5173C109.424 8.68852 110.114 8.00091 110.945 7.5235C111.776 7.04609 112.718 6.79569 113.676 6.79743C114.635 6.79918 115.576 7.05301 116.405 7.53344C117.234 8.01387 117.922 8.704 118.401 9.53452C118.866 10.3368 119.01 11.2668 119.066 12.27L119.134 13.6334V23.2019L119.201 24.5711C119.342 26.8186 120.978 28.4719 123.239 28.6011L124.601 28.6686V12.27C124.601 9.37029 123.449 6.58928 121.399 4.53847C119.349 2.48766 116.568 1.33495 113.669 1.33381C112.117 1.33217 110.582 1.66176 109.168 2.30055C107.753 2.93934 106.491 3.87262 105.467 5.03805C104.441 3.87308 103.179 2.94002 101.765 2.30104C100.351 1.66206 98.8163 1.33184 97.2644 1.33237C94.9939 1.33237 92.887 2.02127 91.1418 3.21104C90.0769 2.0227 87.6945 1.33237 86.3267 1.33237V28.6686L87.6945 28.6011C89.9822 28.4504 91.6355 26.8416 91.7245 24.5711L91.7977 23.2019V13.6377L91.8652 12.27C91.9226 11.2381 92.0661 10.3311 92.5325 9.52304C93.0141 8.69478 93.7045 8.00733 94.5348 7.52933C95.3651 7.05134 96.3063 6.79953 97.2644 6.79903C98.2232 6.79924 99.1651 7.05156 99.9956 7.53067C100.826 8.00979 101.516 8.69886 101.996 9.52878ZM8.4171 28.6025L9.78484 28.6686H30.2866L30.2192 27.3051C30.034 25.0576 28.4424 23.4157 26.1877 23.2694L24.82 23.2019H12.5203L28.9189 6.7976L28.8514 5.4356C28.7452 3.16512 27.0861 1.52469 24.82 1.39983L23.4522 1.33811L2.95044 1.33237L3.01789 2.70011C3.19729 4.9261 4.81189 6.60241 7.04792 6.73158L8.4171 6.79903H20.7167L4.31818 23.2033L4.38564 24.5711C4.52054 26.8243 6.14662 28.4561 8.4171 28.6011V28.6025ZM80.9605 5.3337C82.23 6.60287 83.237 8.10968 83.924 9.76807C84.611 11.4265 84.9647 13.204 84.9647 14.999C84.9647 16.7941 84.611 18.5716 83.924 20.23C83.237 21.8884 82.23 23.3952 80.9605 24.6644C78.3958 27.227 74.9186 28.6665 71.2931 28.6665C67.6675 28.6665 64.1903 27.227 61.6256 24.6644C56.2881 19.3269 56.2881 10.6712 61.6256 5.3337C62.8939 4.06495 64.3996 3.05844 66.0569 2.37165C67.7142 1.68485 69.4905 1.33122 71.2844 1.33094C73.0813 1.32969 74.8608 1.6827 76.5211 2.36978C78.1814 3.05686 79.69 4.06452 80.9605 5.33513V5.3337ZM77.0927 9.20442C78.6301 10.743 79.4937 12.829 79.4937 15.0041C79.4937 17.1791 78.6301 19.2651 77.0927 20.8037C75.5541 22.3411 73.4681 23.2047 71.2931 23.2047C69.118 23.2047 67.032 22.3411 65.4934 20.8037C63.956 19.2651 63.0924 17.1791 63.0924 15.0041C63.0924 12.829 63.956 10.743 65.4934 9.20442C67.032 7.66703 69.118 6.80342 71.2931 6.80342C73.4681 6.80342 75.5541 7.66703 77.0927 9.20442ZM42.5977 1.33094C44.3918 1.3314 46.1682 1.68526 47.8255 2.37231C49.4827 3.05936 50.9884 4.06613 52.2566 5.33513C57.5955 10.6712 57.5955 19.3283 52.2566 24.6644C49.6919 27.227 46.2147 28.6665 42.5891 28.6665C38.9636 28.6665 35.4863 27.227 32.9216 24.6644C27.5842 19.3269 27.5842 10.6712 32.9216 5.3337C34.1899 4.06495 35.6957 3.05844 37.353 2.37165C39.0102 1.68485 40.7866 1.33122 42.5805 1.33094H42.5977ZM48.3888 9.20155C49.9266 10.7402 50.7905 12.8265 50.7905 15.0019C50.7905 17.1773 49.9266 19.2636 48.3888 20.8022C46.8502 22.3396 44.7642 23.2032 42.5891 23.2032C40.4141 23.2032 38.3281 22.3396 36.7895 20.8022C35.2521 19.2637 34.3885 17.1776 34.3885 15.0026C34.3885 12.8276 35.2521 10.7415 36.7895 9.20299C38.3281 7.66559 40.4141 6.80199 42.5891 6.80199C44.7642 6.80199 46.8502 7.66416 48.3888 9.20155Z" fill="#2D8CFF"/>
</svg>
